<svg xmlns="http://www.w3.org/2000/svg" viewBox="0 0 30.06 30.06"><defs><style>.cls-1,.cls-2{fill:red;}.cls-2{stroke:#000;stroke-miterlimit:10;stroke-width:0.06px;}.cls-3{fill:#1bd741;}.cls-4{fill:#fff;}</style></defs><title>wtsp</title><g id="Layer_2" data-name="Layer 2"><path class="cls-1" d="M7.7,21.52a65.48,65.48,0,0,0,7.3.27,65.46,65.46,0,0,0,7.3-.27,2.46,2.46,0,0,0,2.11-1.92A20.85,20.85,0,0,0,24.74,15a20.83,20.83,0,0,0-.34-4.61A2.46,2.46,0,0,0,22.3,8.48,65.48,65.48,0,0,0,15,8.21a65.52,65.52,0,0,0-7.3.27,2.46,2.46,0,0,0-2.1,1.91A20.85,20.85,0,0,0,5.26,15a20.84,20.84,0,0,0,.34,4.61A2.46,2.46,0,0,0,7.7,21.52Zm4.78-9.94,6.19,3.23L12.49,18V11.58Z" transform="translate(0.03 0.03)"/><path class="cls-2" d="M0,0V30H30V0ZM28.14,28.14H1.86V1.86H28.14Z" transform="translate(0.03 0.03)"/><rect class="cls-3" x="0.03" y="0.03" width="30" height="30"/><path class="cls-4" d="M4.51,25.5,6,20.28a10.47,10.47,0,1,1,3.91,3.83Zm5.66-3.29.32.2a8.7,8.7,0,1,0-2.8-2.74L7.9,20l-.85,3Z" transform="translate(0.03 0.03)"/><path class="cls-4" d="M12.07,10.1l-.68,0a.82.82,0,0,0-.58.2,3.1,3.1,0,0,0-1,1.56,4.73,4.73,0,0,0,1.1,3.71,11,11,0,0,0,5.95,4.32,2.9,2.9,0,0,0,2.45-.3,2.19,2.19,0,0,0,1-1.39l.11-.51a.35.35,0,0,0-.2-.39l-2.3-1.06a.35.35,0,0,0-.43.1l-.9,1.17a.26.26,0,0,1-.29.09,7.06,7.06,0,0,1-3.82-3.27.26.26,0,0,1,0-.29l.86-1a.35.35,0,0,0,.06-.37l-1-2.32A.35.35,0,0,0,12.07,10.1Z" transform="translate(0.03 0.03)"/></g></svg>