<svg xmlns="http://www.w3.org/2000/svg" viewBox="0 0 30.06 30.06"><defs><style>.cls-1{fill:#040404;}.cls-2{fill:#fff;}.cls-2,.cls-4{stroke:#000;stroke-miterlimit:10;stroke-width:0.06px;}.cls-3,.cls-4{fill:red;}</style></defs><title>youtube</title><g id="Layer_2" data-name="Layer 2"><path class="cls-1" d="M0,0V30H30V0ZM25,19.91a2.63,2.63,0,0,1-2.25,2,69.78,69.78,0,0,1-7.78.29A69.79,69.79,0,0,1,7.22,22a2.62,2.62,0,0,1-2.24-2A22.21,22.21,0,0,1,4.62,15,22.22,22.22,0,0,1,5,10.09,2.62,2.62,0,0,1,7.23,8,69.82,69.82,0,0,1,15,7.76,69.81,69.81,0,0,1,22.78,8a2.62,2.62,0,0,1,2.25,2A22.2,22.2,0,0,1,25.38,15,22.23,22.23,0,0,1,25,19.91Z" transform="translate(0.03 0.03)"/><path class="cls-1" d="M12.32,18.22l6.6-3.42-6.6-3.44v6.87Z" transform="translate(0.03 0.03)"/><rect class="cls-2" x="0.03" y="0.03" width="30" height="30"/><path class="cls-3" d="M7.7,21.52a65.48,65.48,0,0,0,7.3.27,65.46,65.46,0,0,0,7.3-.27,2.46,2.46,0,0,0,2.11-1.92A20.85,20.85,0,0,0,24.74,15a20.83,20.83,0,0,0-.34-4.61A2.46,2.46,0,0,0,22.3,8.48,65.48,65.48,0,0,0,15,8.21a65.52,65.52,0,0,0-7.3.27,2.46,2.46,0,0,0-2.1,1.91A20.85,20.85,0,0,0,5.26,15a20.84,20.84,0,0,0,.34,4.61A2.46,2.46,0,0,0,7.7,21.52Zm4.78-9.94,6.19,3.23L12.49,18V11.58Z" transform="translate(0.03 0.03)"/><path class="cls-4" d="M0,0V30H30V0ZM28.14,28.14H1.86V1.86H28.14Z" transform="translate(0.03 0.03)"/></g></svg>