<svg xmlns="http://www.w3.org/2000/svg" viewBox="0 0 30 30"><defs><style>.cls-1{fill:#c536a4;}</style></defs><title>instagram</title><g id="Layer_2" data-name="Layer 2"><path class="cls-1" d="M15,12a3,3,0,1,0,3,3A3,3,0,0,0,15,12Zm0,0a3,3,0,1,0,3,3A3,3,0,0,0,15,12Zm5-4.86H10A2.88,2.88,0,0,0,7.15,10V20A2.88,2.88,0,0,0,10,22.85H20A2.88,2.88,0,0,0,22.85,20V10A2.88,2.88,0,0,0,20,7.15Zm-5,13A5.17,5.17,0,1,1,20.17,15,5.17,5.17,0,0,1,15,20.17Zm5.33-9.26a1.22,1.22,0,1,1,1.22-1.22A1.22,1.22,0,0,1,20.33,10.9ZM15,12a3,3,0,1,0,3,3A3,3,0,0,0,15,12Zm5-4.86H10A2.88,2.88,0,0,0,7.15,10V20A2.88,2.88,0,0,0,10,22.85H20A2.88,2.88,0,0,0,22.85,20V10A2.88,2.88,0,0,0,20,7.15Zm-5,13A5.17,5.17,0,1,1,20.17,15,5.17,5.17,0,0,1,15,20.17Zm5.33-9.26a1.22,1.22,0,1,1,1.22-1.22A1.22,1.22,0,0,1,20.33,10.9ZM15,12a3,3,0,1,0,3,3A3,3,0,0,0,15,12ZM0,0V30H30V0ZM25,20A5.07,5.07,0,0,1,20,25H10A5.07,5.07,0,0,1,5,20V10A5.07,5.07,0,0,1,10,5H20A5.07,5.07,0,0,1,25,10V20ZM20,7.15H10A2.88,2.88,0,0,0,7.15,10V20A2.88,2.88,0,0,0,10,22.85H20A2.88,2.88,0,0,0,22.85,20V10A2.88,2.88,0,0,0,20,7.15Zm-5,13A5.17,5.17,0,1,1,20.17,15,5.17,5.17,0,0,1,15,20.17Zm5.33-9.26a1.22,1.22,0,1,1,1.22-1.22A1.22,1.22,0,0,1,20.33,10.9ZM15,12a3,3,0,1,0,3,3A3,3,0,0,0,15,12Zm0,0a3,3,0,1,0,3,3A3,3,0,0,0,15,12Zm0,0a3,3,0,1,0,3,3A3,3,0,0,0,15,12Zm5-4.86H10A2.88,2.88,0,0,0,7.15,10V20A2.88,2.88,0,0,0,10,22.85H20A2.88,2.88,0,0,0,22.85,20V10A2.88,2.88,0,0,0,20,7.15Zm-5,13A5.17,5.17,0,1,1,20.17,15,5.17,5.17,0,0,1,15,20.17Zm5.33-9.26a1.22,1.22,0,1,1,1.22-1.22A1.22,1.22,0,0,1,20.33,10.9ZM15,12a3,3,0,1,0,3,3A3,3,0,0,0,15,12Zm0,0a3,3,0,1,0,3,3A3,3,0,0,0,15,12Zm0,0a3,3,0,1,0,3,3A3,3,0,0,0,15,12Zm5-4.86H10A2.88,2.88,0,0,0,7.15,10V20A2.88,2.88,0,0,0,10,22.85H20A2.88,2.88,0,0,0,22.85,20V10A2.88,2.88,0,0,0,20,7.15Zm-5,13A5.17,5.17,0,1,1,20.17,15,5.17,5.17,0,0,1,15,20.17Zm5.33-9.26a1.22,1.22,0,1,1,1.22-1.22A1.22,1.22,0,0,1,20.33,10.9ZM15,12a3,3,0,1,0,3,3A3,3,0,0,0,15,12Z"/></g></svg>