<svg xmlns="http://www.w3.org/2000/svg" viewBox="0 0 199.72 74.7"><defs><style>.cls-1{stroke:#000;stroke-miterlimit:10;stroke-width:0.38px;}</style></defs><title>logo</title><g id="Layer_2" data-name="Layer 2"><rect class="cls-1" x="33.5" y="58.32" width="3.82" height="16.02"/><rect class="cls-1" x="27.45" y="58.32" width="3.82" height="16.02"/><rect class="cls-1" x="21.4" y="58.32" width="3.82" height="16.02"/><rect class="cls-1" x="7.96" y="64.7" width="16.02" height="3.82" transform="translate(-52.11 55.31) rotate(-67.26)"/><rect class="cls-1" x="-0.54" y="64.7" width="16.02" height="3.82" transform="translate(-47.85 27.81) rotate(-48.52)"/><path class="cls-1" d="M41.2,17a2.85,2.85,0,0,0,1.77.81A1.28,1.28,0,0,0,44.25,17L38.07,4.88h4.3L45,10.64a21.3,21.3,0,0,1,.87,2.15h0s.25-1,.63-2.13l2-5.78h4.12l-4.72,12c-.76,1.89-2,4.28-4.79,4.28A6,6,0,0,1,39.5,20Z" transform="translate(-0.47 -0.28)"/><path class="cls-1" d="M54.58,4.87h3.91v6.18H60.1l3.31-6.18h4.21L63.3,12.53v0l4.57,8.31H63.49l-3.4-6.49H58.49v6.49H54.58Z" transform="translate(-0.47 -0.28)"/><path class="cls-1" d="M70,4.87h6.65c3.11,0,5.22,2.28,5.22,5.51s-2.11,5.55-5.22,5.55H73.92v4.95H70Zm5.86,7.71a2,2,0,0,0,2-2.19,1.9,1.9,0,0,0-2-2.15h-2v4.35Z" transform="translate(-0.47 -0.28)"/><path class="cls-1" d="M87.25,4.87h4.12l5.44,16h-4l-1-3.36h-5l-1,3.36h-4Zm3.63,9.51L90,11.26c-.29-1-.65-2.76-.65-2.76h0s-.38,1.75-.65,2.76l-.92,3.11Z" transform="translate(-0.47 -0.28)"/><path class="cls-1" d="M97,.48h2.82V3.62H97Zm1.77,4.39h3.92v16H98.82ZM101.73.48h2.82V3.62h-2.82Z" transform="translate(-0.47 -0.28)"/><path class="cls-1" d="M106.34,4.87h3.92v6.42h5.83V4.87H120v16h-3.92V14.61h-5.82v6.27h-3.92Z" transform="translate(-0.47 -0.28)"/><path class="cls-1" d="M131.12,4.6a8.61,8.61,0,0,1,6,2.27l-1.81,3a6.55,6.55,0,0,0-4-1.63,4.26,4.26,0,0,0-4.53,4.57c0,2.37,1.43,4.81,4.53,4.81a6.32,6.32,0,0,0,4.26-2l2,2.87a8.74,8.74,0,0,1-6.45,2.71,8,8,0,0,1-8.4-8.31A8.07,8.07,0,0,1,131.12,4.6Z" transform="translate(-0.47 -0.28)"/><path class="cls-1" d="M139.78,4.87h3.92V9.82h2.73c3.11,0,5.22,2.33,5.22,5.55s-2.11,5.51-5.22,5.51h-6.65Zm5.93,12.66a1.9,1.9,0,0,0,2-2.15,2,2,0,0,0-2-2.19h-1.93v4.35Z" transform="translate(-0.47 -0.28)"/><path class="cls-1" d="M153.93,4.87h3.92v6.18h1.61l3.31-6.18H167l-4.32,7.66v0l4.57,8.31h-4.39l-3.4-6.49h-1.61v6.49h-3.9Z" transform="translate(-0.47 -0.28)"/><path class="cls-1" d="M169.35,4.87h3.92v7.48c0,1-.18,2.73-.18,2.73h0a28.76,28.76,0,0,1,1.34-2.73l4.46-7.48h4v16H179V13.42c0-1,.18-2.73.18-2.73h0a28.2,28.2,0,0,1-1.35,2.73l-4.46,7.46h-3.94Z" transform="translate(-0.47 -0.28)"/><path class="cls-1" d="M186.48,4.87h3.92v7.48c0,1-.18,2.73-.18,2.73h0a28.76,28.76,0,0,1,1.34-2.73L196,4.87h4v16h-3.93V13.42c0-1,.18-2.73.18-2.73h0a28.2,28.2,0,0,1-1.35,2.73l-4.46,7.46h-3.93ZM189.21.72V.47h2.87V.74a1.39,1.39,0,0,0,2.78,0V.47h2.84V.72c0,2.19-2,3.43-4.23,3.43S189.2,2.92,189.2.73Z" transform="translate(-0.47 -0.28)"/><path class="cls-1" d="M40,31.74h3.92v16H40Z" transform="translate(-0.47 -0.28)"/><path class="cls-1" d="M47.45,31.74h3.92v6.42H57.2V31.74h3.93v16H57.2V41.48H51.37v6.27H47.45Z" transform="translate(-0.47 -0.28)"/><path class="cls-1" d="M72.23,31.47a8.61,8.61,0,0,1,6,2.27l-1.81,3a6.55,6.55,0,0,0-4-1.63,4.26,4.26,0,0,0-4.53,4.57c0,2.37,1.43,4.81,4.53,4.81a6.32,6.32,0,0,0,4.26-2l2,2.87A8.74,8.74,0,0,1,72.23,48a8,8,0,0,1-8.4-8.31A8.06,8.06,0,0,1,72.23,31.47Z" transform="translate(-0.47 -0.28)"/><path class="cls-1" d="M84.8,35.1H79.94V31.74H93.58V35.1H88.72V47.75H84.8Z" transform="translate(-0.47 -0.28)"/><path class="cls-1" d="M95.78,31.74H99.7v7.48c0,1-.18,2.73-.18,2.73h0a28.32,28.32,0,0,1,1.35-2.73l4.43-7.48h4v16h-3.92V40.29c0-1,.18-2.73.18-2.73h0a28.2,28.2,0,0,1-1.35,2.73l-4.46,7.46H95.78Z" transform="translate(-0.47 -0.28)"/><path class="cls-1" d="M116.36,35.1H111.5V31.74h13.64V35.1h-4.86V47.75h-3.92Z" transform="translate(-0.47 -0.28)"/><path class="cls-1" d="M129.47,43.87a2.84,2.84,0,0,0,1.77.81,1.28,1.28,0,0,0,1.28-.83l-6.18-12.11h4.3l2.67,5.76a21.3,21.3,0,0,1,.87,2.15h0s.25-1,.63-2.13l2-5.78h4.12l-4.72,12c-.76,1.89-2,4.28-4.79,4.28a6,6,0,0,1-3.65-1.21Z" transform="translate(-0.47 -0.28)"/><path class="cls-1" d="M147,35.1h-4.86V31.74h13.64V35.1h-4.86V47.75H147Z" transform="translate(-0.47 -0.28)"/><path class="cls-1" d="M40,58.6h3.92v6.18h1.61l3.31-6.18H53l-4.32,7.66v0l4.57,8.31H48.88l-3.4-6.49H43.87v6.49H40Z" transform="translate(-0.47 -0.28)"/><path class="cls-1" d="M55.39,58.6h3.92V65h5.83V58.6h3.93v16H65.13V68.34H59.31v6.27H55.39Z" transform="translate(-0.47 -0.28)"/><path class="cls-1" d="M72.64,58.6h3.92v7.48c0,1-.18,2.73-.18,2.73h0a28.76,28.76,0,0,1,1.34-2.73l4.44-7.48h4v16H82.25V67.15c0-1,.18-2.73.18-2.73h0A28.19,28.19,0,0,1,81,67.15l-4.46,7.46H72.64Z" transform="translate(-0.47 -0.28)"/><path class="cls-1" d="M89.76,58.6h9.82v3.35H93.69V74.6H89.76Z" transform="translate(-0.47 -0.28)"/><path class="cls-1" d="M101.73,58.6h3.92v7.48c0,1-.18,2.73-.18,2.73h0a28.32,28.32,0,0,1,1.35-2.73l4.43-7.48h4v16h-3.91V67.15c0-1,.18-2.73.18-2.73h0a28.19,28.19,0,0,1-1.35,2.73l-4.45,7.46h-4Z" transform="translate(-0.47 -0.28)"/></g></svg>